<?xml version="1.0" encoding="utf-8" ?>
<svg xmlns="http://www.w3.org/2000/svg" xmlns:xlink="http://www.w3.org/1999/xlink" width="1023" height="1024">
	<path d="M754.782 86.3028C761.396 85.6372 769.175 85.4847 775.757 86.3568L812.712 93.2525C885.631 108.642 937.11 183.049 933.455 256.394C931.784 289.933 921.929 324.636 898.609 349.488L783.596 465.343C773.042 475.661 762.979 486.145 750.446 494.123C702.989 524.334 661.92 521.866 610.431 510.332C602.789 544.85 589.382 556.41 565.078 581.16L511.362 633.619C524.41 682.949 515.641 728.935 482.595 768.241C475.921 776.18 468.132 783.407 460.858 790.808L380.631 871.044C341.428 909.839 316.394 927.991 259.236 932.882C204.015 934.397 152.793 915.586 117.143 871.354C75.5981 819.809 74.0746 732.257 115.474 680.5C123.874 669.998 134.365 660.689 143.802 651.085L235.129 559.378C243.879 550.752 252.529 541.845 262.239 534.284C303.937 501.816 365.469 495.491 413.251 517.532C414.201 515.138 413.857 511.666 414.346 509.032C419.794 479.638 431.533 469.507 451.543 448.542L508.868 390.831L503.715 360.594C497.795 300.144 525.042 267.145 563.772 228.454L642.948 149.222C679.12 112.59 700.537 91.4825 754.782 86.3028ZM759.361 118.195C716.442 123.525 693.457 145.248 664.402 174.683L581.525 258.308C574.284 265.675 566.228 272.922 559.885 281.066C543.039 302.694 531.827 336.706 536.58 364.328L536.802 365.279C544.566 358.631 551.635 352.851 560.762 348.07C566.878 344.866 572.592 345.796 574.629 339.013L577.894 328.302C586.942 303.187 601.367 288.084 620.131 269.8L690.944 198.823C702.95 186.833 715.029 173.079 729.797 164.469C763.984 144.537 800.039 152.84 829.849 176.143C865.136 203.727 879.742 249.689 855.764 289.117C846.244 304.772 831.166 318.017 818.335 331.016L732.789 416.499C724.103 425.103 715.5 434.777 704.771 440.802C680.78 454.274 649.801 453.478 625.867 440.406C622.517 438.577 619.285 436.354 615.736 434.947C606.327 440.168 597.656 449.759 590.09 457.367C632.476 492.393 689.974 495.348 734.713 464.126C743.916 457.703 751.93 448.292 759.895 440.347L853.402 346.414C875.911 323.925 888.821 313.805 897.301 281.203C901.117 266.531 903.191 251.905 901.554 236.75C894.178 168.477 828.808 112.155 759.726 118.146L759.361 118.195ZM343.863 537.804C300.007 540.816 278.169 562.714 249.305 592.343L175.17 666.037C165.87 675.371 156.266 684.534 147.61 694.468C49.2788 807.33 197.112 962.148 316.793 883.63C330.574 874.589 341.572 862.254 353.155 850.651L436.185 766.946C468.91 733.398 485.184 711.255 483.354 663.865C476.397 669.016 469.144 673.888 461.25 677.504L448.037 682.664C441.599 707.97 431.737 721.701 413.885 739.444L334.996 818.5C325.522 828.006 316.511 838.173 306.54 847.152C227.08 918.704 100.92 808.199 170.177 722.28C176.135 714.889 183.381 708.227 190.134 701.556L273.536 619.083C304.366 588.427 324.372 560.994 373.79 575.687C379.574 577.407 405.459 589.798 409.001 587.927C414.08 585.244 417.728 580.108 421.75 576.08L433.693 564.66C406.524 548.392 376.524 533.853 343.863 537.804ZM318.759 621.349C308.073 629.876 298.975 641.092 289.402 650.864L216.298 723.492C203.396 735.714 186.385 749.382 184.184 768.281C179.268 810.478 231.87 852.47 270.741 830.993C275.055 828.402 278.814 825.469 282.516 822.082L399.025 704.853C403.796 699.775 408.712 694.972 411.746 688.616C407.897 687.284 404.294 686.952 400.323 686.283L384.705 682.99C356.58 675.596 336.036 655.422 323.557 629.733C322.233 627.006 320.98 623.452 318.759 621.349ZM766.388 186.174C745.306 189.485 733.844 203.195 719.545 217.652L650.977 286.39C636.03 300.846 617.173 315.981 609.966 336.182C616.024 338.31 622.868 338.64 629.156 340.21C658.717 347.589 675.673 358.502 692.036 385.033L699.365 400.52C701.791 399.074 704.089 396.182 706.11 394.196L785.084 315.707C810.891 289.936 851.197 261.982 825.554 220.492C812.925 200.06 791.117 184.176 766.388 186.174ZM566.105 481.36L565.568 481.771C561.716 484.752 558.333 488.338 554.808 491.689L444.463 601.938C394.668 649.156 369.443 593.387 348.53 605.25C348.112 610.237 360.492 627.84 363.567 631.493L364.105 632.128C380.639 649.603 405.923 657.427 429.506 652.372C445.176 649.013 456.675 639.531 467.977 628.758L556.689 540.78C561.339 536.255 566.283 531.545 569.795 526.048C575.965 516.389 579.251 486.713 566.105 481.36ZM595.862 370.186C579.069 372.301 567.991 382.409 555.974 393.25L478.827 469.874C469.859 478.939 457.021 488.684 451.584 500.5L451.328 501.043C445.566 513.64 450.548 529.489 458.794 539.856L498.853 499.566L569.75 428.952C590.01 408.651 608.159 396.949 638.043 408.707C648.262 412.728 658.404 419.559 669.75 418.911C671.583 416.406 667.758 410.322 666.574 407.804C653.552 380.114 625.881 365.393 595.862 370.186Z"/>
</svg>
