<?xml version="1.0" encoding="UTF-8"?>
<svg xmlns="http://www.w3.org/2000/svg" xmlns:xlink="http://www.w3.org/1999/xlink" width="50px" height="50px" viewBox="0 0 50 50" version="1.1">
<g id="surface1">
<path style=" stroke:none;fill-rule:nonzero;fill:rgb(0%,0%,0%);fill-opacity:1;" d="M 36.890625 4.214844 C 37.214844 4.179688 37.59375 4.175781 37.914062 4.214844 L 39.722656 4.554688 C 43.285156 5.304688 45.800781 8.9375 45.625 12.519531 C 45.542969 14.15625 45.058594 15.851562 43.921875 17.066406 L 38.300781 22.722656 C 37.78125 23.226562 37.292969 23.738281 36.679688 24.128906 C 34.359375 25.601562 32.351562 25.480469 29.835938 24.917969 C 29.460938 26.605469 28.804688 27.167969 27.617188 28.375 L 24.992188 30.9375 C 25.632812 33.347656 25.203125 35.59375 23.585938 37.511719 C 23.261719 37.898438 22.878906 38.253906 22.523438 38.613281 L 18.605469 42.53125 C 16.6875 44.425781 15.464844 45.3125 12.671875 45.550781 C 9.972656 45.625 7.46875 44.707031 5.726562 42.546875 C 3.695312 40.03125 3.621094 35.753906 5.644531 33.226562 C 6.054688 32.714844 6.566406 32.261719 7.027344 31.792969 L 11.492188 27.3125 C 11.917969 26.890625 12.34375 26.457031 12.816406 26.089844 C 14.855469 24.503906 17.863281 24.195312 20.199219 25.269531 C 20.246094 25.152344 20.226562 24.984375 20.25 24.855469 C 20.519531 23.417969 21.089844 22.925781 22.070312 21.902344 L 24.871094 19.082031 L 24.621094 17.605469 C 24.332031 14.65625 25.660156 13.042969 27.554688 11.15625 L 31.425781 7.285156 C 33.191406 5.496094 34.238281 4.46875 36.890625 4.214844 Z M 37.113281 5.769531 C 35.015625 6.03125 33.894531 7.09375 32.472656 8.53125 L 28.421875 12.613281 C 28.070312 12.972656 27.675781 13.328125 27.363281 13.722656 C 26.542969 14.78125 25.992188 16.441406 26.226562 17.789062 L 26.238281 17.835938 C 26.617188 17.511719 26.960938 17.230469 27.40625 16.996094 C 27.707031 16.839844 27.984375 16.882812 28.085938 16.554688 L 28.246094 16.03125 C 28.6875 14.804688 29.390625 14.066406 30.308594 13.171875 L 33.769531 9.707031 C 34.355469 9.121094 34.949219 8.449219 35.667969 8.03125 C 37.339844 7.058594 39.101562 7.460938 40.558594 8.601562 C 42.285156 9.949219 43 12.191406 41.828125 14.117188 C 41.359375 14.882812 40.625 15.527344 39.996094 16.164062 L 35.816406 20.335938 C 35.390625 20.757812 34.96875 21.230469 34.445312 21.523438 C 33.273438 22.179688 31.757812 22.140625 30.589844 21.503906 C 30.425781 21.414062 30.269531 21.304688 30.09375 21.238281 C 29.632812 21.492188 29.210938 21.960938 28.839844 22.332031 C 30.914062 24.042969 33.722656 24.1875 35.910156 22.664062 C 36.359375 22.347656 36.75 21.890625 37.140625 21.5 L 41.710938 16.914062 C 42.8125 15.816406 43.441406 15.324219 43.855469 13.730469 C 44.042969 13.015625 44.144531 12.300781 44.0625 11.558594 C 43.703125 8.226562 40.507812 5.476562 37.132812 5.769531 Z M 16.804688 26.261719 C 14.664062 26.40625 13.597656 27.476562 12.183594 28.921875 L 8.5625 32.519531 C 8.105469 32.976562 7.636719 33.425781 7.214844 33.910156 C 2.410156 39.421875 9.632812 46.980469 15.484375 43.144531 C 16.15625 42.703125 16.695312 42.101562 17.261719 41.535156 L 21.320312 37.449219 C 22.917969 35.808594 23.714844 34.730469 23.625 32.414062 C 23.285156 32.667969 22.929688 32.90625 22.542969 33.082031 L 21.898438 33.332031 C 21.582031 34.570312 21.101562 35.238281 20.230469 36.105469 L 16.375 39.964844 C 15.910156 40.429688 15.46875 40.925781 14.980469 41.363281 C 11.097656 44.859375 4.933594 39.460938 8.316406 35.269531 C 8.609375 34.90625 8.964844 34.582031 9.292969 34.253906 L 13.371094 30.230469 C 14.875 28.730469 15.855469 27.390625 18.269531 28.109375 C 18.550781 28.195312 19.816406 28.796875 19.992188 28.707031 C 20.238281 28.578125 20.417969 28.324219 20.613281 28.128906 L 21.195312 27.570312 C 19.871094 26.777344 18.402344 26.066406 16.804688 26.261719 Z M 15.578125 30.339844 C 15.058594 30.753906 14.613281 31.304688 14.144531 31.78125 L 10.570312 35.328125 C 9.941406 35.921875 9.109375 36.589844 9.003906 37.515625 C 8.761719 39.574219 11.332031 41.625 13.234375 40.574219 C 13.445312 40.449219 13.628906 40.304688 13.808594 40.140625 L 19.503906 34.417969 C 19.734375 34.167969 19.976562 33.933594 20.125 33.625 C 19.9375 33.558594 19.761719 33.542969 19.566406 33.511719 L 18.804688 33.347656 C 17.429688 32.988281 16.425781 32.003906 15.8125 30.75 C 15.75 30.617188 15.6875 30.441406 15.578125 30.339844 Z M 37.457031 9.089844 C 36.425781 9.253906 35.867188 9.921875 35.167969 10.628906 L 31.816406 13.984375 C 31.085938 14.691406 30.164062 15.429688 29.8125 16.414062 C 30.109375 16.519531 30.441406 16.535156 30.75 16.613281 C 32.195312 16.972656 33.023438 17.503906 33.824219 18.800781 L 34.183594 19.554688 C 34.300781 19.484375 34.414062 19.34375 34.511719 19.246094 L 38.371094 15.414062 C 39.632812 14.15625 41.601562 12.792969 40.351562 10.765625 C 39.730469 9.769531 38.667969 8.992188 37.457031 9.089844 Z M 27.667969 23.503906 L 27.644531 23.523438 C 27.453125 23.667969 27.289062 23.84375 27.117188 24.007812 L 21.722656 29.390625 C 19.289062 31.695312 18.058594 28.972656 17.035156 29.554688 C 17.015625 29.796875 17.621094 30.65625 17.769531 30.835938 L 17.796875 30.867188 C 18.605469 31.71875 19.839844 32.101562 20.992188 31.855469 C 21.757812 31.691406 22.320312 31.226562 22.871094 30.699219 L 27.207031 26.40625 C 27.4375 26.183594 27.675781 25.953125 27.847656 25.6875 C 28.152344 25.214844 28.3125 23.765625 27.667969 23.503906 Z M 29.125 18.074219 C 28.300781 18.179688 27.761719 18.671875 27.171875 19.203125 L 23.402344 22.941406 C 22.964844 23.386719 22.335938 23.863281 22.070312 24.4375 L 22.058594 24.464844 C 21.777344 25.078125 22.019531 25.855469 22.425781 26.359375 L 24.382812 24.394531 L 27.847656 20.945312 C 28.835938 19.953125 29.722656 19.382812 31.183594 19.957031 C 31.683594 20.152344 32.179688 20.484375 32.734375 20.453125 C 32.824219 20.332031 32.636719 20.035156 32.578125 19.914062 C 31.941406 18.558594 30.589844 17.839844 29.125 18.074219 Z M 29.125 18.074219 "/>
</g>
</svg>