<?xml version="1.0" encoding="utf-8" ?>
<svg xmlns="http://www.w3.org/2000/svg" xmlns:xlink="http://www.w3.org/1999/xlink" width="1024" height="1024">
	<path transform="scale(1.6 1.6)" d="M319.783 476.479C321.588 476.296 324.663 479.37 326.045 480.517C337.063 489.666 352.197 493.043 365.731 496.522L387.965 502.424C393.305 503.776 417.911 508.162 418.72 513.125L418.33 513.594C415.923 513.565 413.27 514.391 410.938 514.92L389.191 519.345C363.672 524.929 347.448 534.156 328.002 551.79L323.958 555.521C323.149 556.313 322.323 557.465 321.345 558.019L319.636 557.328C315.958 554.957 312.634 551.142 309.283 548.248C287.456 529.398 268.305 522.835 240.4 517.337C234.292 516.134 228.013 515.291 222.017 513.612C211.036 510.536 251.776 502.604 254.517 501.915L280.399 494.849C288.974 492.5 298.126 490.491 306.072 486.385C311.279 483.695 315.007 479.668 319.783 476.479Z"/>
	<path transform="scale(1.6 1.6)" d="M337.882 320.552L435.625 328.228C440.699 328.752 463.034 329.108 465.839 331.615C465.236 333.239 465.063 335.276 464.708 336.989L453.484 383.694C453.01 386.3 452.078 389.071 451.213 391.584C449.515 396.521 446.094 394.573 441.598 394.529L418.866 394.163C389.668 393.675 369.405 396.5 347.871 369.942C336.783 356.268 336.154 337.3 337.882 320.552Z"/>
	<path transform="scale(1.6 1.6)" d="M300.897 320.115C301.492 320.122 301.581 320.145 302.08 320.397C303.187 333.428 304.287 348.447 298.2 360.442C285.263 385.933 260.672 394.064 234.166 394.103L216.063 394.116C211.5 394.118 192.357 395.655 189.36 393.806C188.44 393.238 186.715 386.137 186.338 384.611L179.435 357.237C177.322 348.829 174.653 340.269 173.48 331.684C178.72 330.447 184.573 330.184 189.929 329.645L233.906 325.335L300.897 320.115Z"/>
	<path transform="scale(1.6 1.6)" d="M160.586 72.4584C165.876 76.232 170.333 81.4357 174.792 86.1456C198.286 110.96 229.34 152.95 244.172 184.898C221.313 187.551 200.912 195.761 180.825 206.397C172.017 211.766 163.273 217.205 155.555 224.115L137.115 242.807C136.701 243.322 136.183 244.254 135.576 244.51C134.393 235.061 134.672 225.523 134.679 216.018L134.884 193.135C136.23 161.525 143.455 96.2822 160.586 72.4584Z"/>
	<path transform="scale(1.6 1.6)" d="M480.13 73.0897L480.751 73.1775C488.402 82.4252 495.269 114.152 497.504 125.625L501.966 152.088L505.89 198.58L505.968 230.688C505.959 235.392 505.702 240.257 506.109 244.939L506.151 245.391C497.74 233.311 472.939 214.213 460.802 207.397C449.648 199.752 431.338 192.816 418.597 189.531L396.915 184.584C398.661 178.949 402.464 173.28 405.344 168.125C419.05 143.585 435.586 119.833 454.318 98.855L475.526 76.9438C476.98 75.56 478.371 74.0868 480.13 73.0897Z"/>
	<path transform="scale(1.6 1.6)" d="M298.946 186.748C313.176 185.923 327.714 186.525 341.943 187.06L385.826 189.888C390.759 190.407 395.817 190.729 400.708 191.574C438.123 198.034 481.22 221.335 503.869 252.694C504.819 254.01 505.867 255.244 506.512 256.749L506.662 257.11C507.808 259.662 507.265 263.418 507.239 266.234L503.991 328.514L434.896 321.775C429.222 321.237 423.524 321.39 417.849 320.737L362.054 314.872C352.975 313.965 343.968 312.12 334.824 312.236C334.359 316.607 333.657 320.99 332.744 325.287C332.691 326.92 332.133 329.993 331.409 331.406C325.048 333.132 315.266 332.912 309.137 330.713C307.006 325.065 308.124 318.449 306.132 312.656C303.399 310.997 296.266 313.05 293.19 313.399L226.406 320.859C222.092 321.298 217.696 321.268 213.362 321.468L153.195 327.66C148.048 328.202 143.068 328.995 137.876 329.108C136.427 322.774 136.403 316.241 135.899 309.792L133.028 269.38C132.453 262.244 131.759 259.162 136.073 253.368C172.014 205.098 223.434 191.103 279.897 187.751L298.946 186.748Z"/>
	<path transform="scale(1.6 1.6)" d="M472.723 332.474C480.66 332.584 488.996 333.675 496.875 334.686C507.58 336.059 504.072 336.941 505.186 347.363L510.905 388.468C513.839 420.246 506.069 439.674 491.233 467.494C488.804 467.81 485.133 466.6 482.73 466.094L386.339 447.443L385.481 453.827C387.763 454.599 389.927 454.822 392.265 455.275L454.688 467.236L618.225 501.676C620.773 502.217 622.543 502.81 624.744 504.195C627.932 511.516 624.23 517.698 616.271 516.34L472.036 485.14C465.662 483.923 460.562 484.895 456.707 490.832C461.254 491.639 465.636 491.101 470.012 492.911C469.479 499.121 466.907 505.253 463.888 510.641C461.75 514.457 460.185 514.377 456.316 513.255L361.667 488.139C333.392 480.308 322.97 480.795 325.101 449.645C325.341 446.136 325.259 446.645 328.395 444.687C344.726 434.492 346.473 427.889 357.515 415.643C353.936 414.604 351.01 412.605 347.232 411.852C346.977 420.663 341.459 427.35 334.178 432.064L333.839 432.279C326.806 436.773 316.503 438.159 308.85 434.283L308.438 434.068C301.573 430.592 290.913 420.186 293.41 411.51L293.544 411.068C289.835 412.345 287.204 413.532 284.011 415.836C289.767 425.14 295.409 433.226 304.334 439.741C307.731 442.221 311.695 443.939 314.673 446.939L315.445 455.312C317.026 474.26 309.747 479.292 291.406 485.003L223.305 502.133L181.406 512.614C175.259 513.77 171.437 500.026 170.526 495.654C169.337 489.945 175.049 490.234 178.963 490.196L188.386 490.026C187.523 489.329 186.615 488.484 185.625 487.979L183.858 487.078C179.409 484.796 174.298 484.379 169.401 485.199L32.7925 514.852C29.4301 515.707 25.7998 516.902 22.3438 517.186C14.938 517.794 11.701 505.431 19.1176 502.914C23.3136 501.491 27.8917 500.805 32.2093 499.792L200.469 464.378L243.037 456.65C247.172 455.774 251.441 455.108 255.486 453.893L254.55 448.374L159.688 465.313C150.499 467.237 150.297 469.929 145.939 461.875C122.559 418.667 128.709 398.037 134.76 354.158L135.807 346.465C136.094 343.816 135.486 336.918 139.086 336.541L163.78 333.811C164.727 333.766 165.826 333.615 166.74 333.869L185.127 399.946L245.346 399.702C247.759 399.698 250.513 399.949 252.887 399.552C274.758 395.891 299.788 377.713 305.84 355.895C306.89 352.111 307.185 348.264 308.021 344.459L332.81 346.298L333.677 353.906C337.199 376.518 368.175 397.631 389.219 399.604C392.304 399.894 395.54 399.702 398.647 399.704L454.551 399.667C456.4 396.773 457.014 393.305 457.794 390L466.468 355.693C468.39 347.869 470.097 340.106 472.723 332.474Z"/>
</svg>
