<?xml version="1.0" encoding="UTF-8"?>
<svg xmlns="http://www.w3.org/2000/svg" xmlns:xlink="http://www.w3.org/1999/xlink" width="100px" height="100px" viewBox="0 0 100 100" version="1.1">
<g id="surface1">
<path style=" stroke:none;fill-rule:nonzero;fill:rgb(0%,0%,0%);fill-opacity:1;" d="M 49.964844 74.449219 C 50.25 74.421875 50.726562 74.902344 50.945312 75.082031 C 52.667969 76.511719 55.03125 77.039062 57.144531 77.582031 L 60.621094 78.503906 C 61.453125 78.714844 65.296875 79.398438 65.425781 80.175781 L 65.363281 80.25 C 64.988281 80.246094 64.574219 80.375 64.207031 80.457031 L 60.8125 81.148438 C 56.824219 82.019531 54.289062 83.460938 51.25 86.21875 L 50.617188 86.800781 C 50.492188 86.921875 50.363281 87.105469 50.210938 87.191406 L 49.941406 87.082031 C 49.367188 86.710938 48.847656 86.117188 48.324219 85.664062 C 44.914062 82.71875 41.921875 81.691406 37.5625 80.832031 C 36.609375 80.644531 35.628906 80.515625 34.691406 80.253906 C 32.972656 79.769531 39.339844 78.53125 39.769531 78.425781 L 43.8125 77.320312 C 45.152344 76.953125 46.582031 76.640625 47.824219 75.996094 C 48.636719 75.578125 49.21875 74.949219 49.964844 74.449219 Z M 49.964844 74.449219 "/>
<path style=" stroke:none;fill-rule:nonzero;fill:rgb(0%,0%,0%);fill-opacity:1;" d="M 52.792969 50.085938 L 68.066406 51.285156 C 68.859375 51.367188 72.347656 51.421875 72.789062 51.816406 C 72.691406 52.070312 72.664062 52.386719 72.609375 52.65625 L 70.855469 59.953125 C 70.78125 60.359375 70.636719 60.792969 70.503906 61.183594 C 70.238281 61.957031 69.703125 61.652344 69 61.644531 L 65.449219 61.589844 C 60.886719 61.511719 57.71875 61.953125 54.355469 57.804688 C 52.621094 55.667969 52.523438 52.703125 52.792969 50.085938 Z M 52.792969 50.085938 "/>
<path style=" stroke:none;fill-rule:nonzero;fill:rgb(0%,0%,0%);fill-opacity:1;" d="M 47.015625 50.019531 C 47.109375 50.019531 47.121094 50.023438 47.199219 50.0625 C 47.371094 52.097656 47.542969 54.445312 46.59375 56.320312 C 44.574219 60.300781 40.730469 61.570312 36.589844 61.578125 L 33.761719 61.582031 C 33.046875 61.582031 30.054688 61.820312 29.585938 61.53125 C 29.445312 61.445312 29.175781 60.332031 29.117188 60.09375 L 28.035156 55.816406 C 27.707031 54.503906 27.289062 53.167969 27.105469 51.824219 C 27.925781 51.632812 28.839844 51.589844 29.675781 51.507812 L 36.546875 50.832031 Z M 47.015625 50.019531 "/>
<path style=" stroke:none;fill-rule:nonzero;fill:rgb(0%,0%,0%);fill-opacity:1;" d="M 25.089844 11.320312 C 25.917969 11.910156 26.613281 12.722656 27.3125 13.460938 C 30.980469 17.335938 35.835938 23.898438 38.152344 28.890625 C 34.578125 29.304688 31.390625 30.585938 28.253906 32.25 C 26.878906 33.089844 25.511719 33.9375 24.304688 35.019531 L 21.425781 37.9375 C 21.359375 38.019531 21.277344 38.164062 21.183594 38.203125 C 21 36.726562 21.042969 35.238281 21.042969 33.753906 L 21.074219 30.175781 C 21.285156 25.238281 22.414062 15.042969 25.089844 11.320312 Z M 25.089844 11.320312 "/>
<path style=" stroke:none;fill-rule:nonzero;fill:rgb(0%,0%,0%);fill-opacity:1;" d="M 75.019531 11.421875 L 75.117188 11.433594 C 76.3125 12.878906 77.386719 17.835938 77.734375 19.628906 L 78.433594 23.761719 L 79.046875 31.027344 L 79.058594 36.042969 C 79.054688 36.78125 79.015625 37.539062 79.078125 38.273438 L 79.085938 38.34375 C 77.773438 36.453125 73.898438 33.46875 72 32.40625 C 70.257812 31.210938 67.398438 30.128906 65.40625 29.613281 L 62.019531 28.839844 C 62.289062 27.960938 62.886719 27.074219 63.335938 26.269531 C 65.476562 22.433594 68.058594 18.722656 70.988281 15.445312 L 74.300781 12.023438 C 74.527344 11.804688 74.746094 11.574219 75.019531 11.421875 Z M 75.019531 11.421875 "/>
<path style=" stroke:none;fill-rule:nonzero;fill:rgb(0%,0%,0%);fill-opacity:1;" d="M 46.710938 29.179688 C 48.933594 29.050781 51.207031 29.144531 53.429688 29.226562 L 60.285156 29.671875 C 61.054688 29.75 61.847656 29.800781 62.609375 29.933594 C 68.457031 30.941406 75.191406 34.582031 78.730469 39.484375 C 78.878906 39.6875 79.042969 39.882812 79.140625 40.117188 L 79.167969 40.171875 C 79.34375 40.570312 79.261719 41.160156 79.257812 41.597656 L 78.75 51.332031 L 67.953125 50.277344 C 67.066406 50.191406 66.175781 50.21875 65.289062 50.113281 L 56.570312 49.199219 C 55.152344 49.058594 53.746094 48.769531 52.316406 48.785156 C 52.242188 49.46875 52.132812 50.15625 51.992188 50.824219 C 51.984375 51.082031 51.894531 51.5625 51.78125 51.78125 C 50.789062 52.050781 49.261719 52.019531 48.300781 51.675781 C 47.96875 50.792969 48.144531 49.757812 47.832031 48.851562 C 47.40625 48.59375 46.292969 48.914062 45.8125 48.96875 L 35.375 50.132812 C 34.703125 50.203125 34.015625 50.199219 33.339844 50.230469 L 23.9375 51.195312 C 23.132812 51.28125 22.355469 51.40625 21.542969 51.421875 C 21.316406 50.433594 21.3125 49.414062 21.234375 48.40625 L 20.785156 42.089844 C 20.695312 40.976562 20.585938 40.496094 21.261719 39.589844 C 26.878906 32.046875 34.910156 29.859375 43.734375 29.335938 Z M 46.710938 29.179688 "/>
<path style=" stroke:none;fill-rule:nonzero;fill:rgb(0%,0%,0%);fill-opacity:1;" d="M 73.863281 51.949219 C 75.101562 51.964844 76.40625 52.136719 77.636719 52.292969 C 79.308594 52.507812 78.761719 52.648438 78.933594 54.277344 L 79.828125 60.699219 C 80.289062 65.664062 79.074219 68.699219 76.753906 73.046875 C 76.375 73.09375 75.800781 72.90625 75.425781 72.828125 L 60.367188 69.914062 L 60.230469 70.910156 C 60.589844 71.03125 60.925781 71.066406 61.292969 71.136719 L 71.042969 73.003906 L 96.597656 78.386719 C 96.996094 78.472656 97.273438 78.5625 97.617188 78.78125 C 98.113281 79.925781 97.535156 80.890625 96.292969 80.679688 L 73.753906 75.804688 C 72.757812 75.613281 71.964844 75.765625 71.359375 76.691406 C 72.070312 76.820312 72.753906 76.734375 73.441406 77.015625 C 73.355469 77.988281 72.953125 78.945312 72.480469 79.789062 C 72.148438 80.382812 71.902344 80.371094 71.300781 80.195312 L 56.511719 76.273438 C 52.09375 75.046875 50.464844 75.125 50.796875 70.257812 C 50.835938 69.707031 50.820312 69.789062 51.3125 69.480469 C 53.863281 67.890625 54.136719 66.859375 55.863281 64.945312 C 55.300781 64.78125 54.84375 64.46875 54.253906 64.351562 C 54.214844 65.730469 53.351562 66.773438 52.214844 67.511719 L 52.164062 67.542969 C 51.0625 68.246094 49.453125 68.460938 48.257812 67.855469 L 48.191406 67.824219 C 47.121094 67.28125 45.453125 65.652344 45.84375 64.296875 L 45.867188 64.230469 C 45.285156 64.429688 44.875 64.613281 44.375 64.972656 C 45.277344 66.429688 46.15625 67.691406 47.550781 68.710938 C 48.082031 69.097656 48.703125 69.367188 49.167969 69.835938 L 49.289062 71.140625 C 49.535156 74.101562 48.398438 74.890625 45.53125 75.78125 L 34.890625 78.457031 L 28.34375 80.097656 C 27.382812 80.277344 26.785156 78.128906 26.644531 77.445312 C 26.457031 76.554688 27.351562 76.597656 27.960938 76.59375 L 29.433594 76.566406 C 29.300781 76.457031 29.160156 76.324219 29.003906 76.246094 L 28.726562 76.105469 C 28.03125 75.75 27.234375 75.683594 26.46875 75.8125 L 5.125 80.445312 C 4.597656 80.578125 4.03125 80.765625 3.492188 80.808594 C 2.335938 80.90625 1.828125 78.972656 2.988281 78.582031 C 3.644531 78.359375 4.359375 78.25 5.03125 78.09375 L 31.324219 72.558594 L 37.972656 71.351562 C 38.621094 71.214844 39.289062 71.109375 39.917969 70.921875 L 39.773438 70.058594 L 24.949219 72.703125 C 23.515625 73.003906 23.484375 73.425781 22.800781 72.167969 C 19.148438 65.417969 20.109375 62.191406 21.054688 55.335938 L 21.21875 54.136719 C 21.265625 53.722656 21.167969 52.644531 21.730469 52.585938 L 25.589844 52.15625 C 25.738281 52.152344 25.910156 52.128906 26.054688 52.167969 L 28.925781 62.492188 L 38.335938 62.453125 C 38.710938 62.453125 39.144531 62.492188 39.511719 62.429688 C 42.929688 61.859375 46.84375 59.015625 47.789062 55.609375 C 47.953125 55.015625 47.996094 54.417969 48.128906 53.820312 L 52 54.109375 L 52.136719 55.296875 C 52.6875 58.832031 57.527344 62.128906 60.816406 62.4375 C 61.296875 62.484375 61.804688 62.453125 62.289062 62.453125 L 71.023438 62.449219 C 71.3125 61.996094 71.410156 61.453125 71.53125 60.9375 L 72.886719 55.578125 C 73.1875 54.355469 73.453125 53.140625 73.863281 51.949219 Z M 73.863281 51.949219 "/>
</g>
</svg>